<?xml version="1.0" encoding="utf-8"?>
<!-- Generator: Adobe Illustrator 22.1.0, SVG Export Plug-In . SVG Version: 6.00 Build 0)  -->
<svg version="1.1" id="Layer_1" xmlns="http://www.w3.org/2000/svg" xmlns:xlink="http://www.w3.org/1999/xlink" x="0px" y="0px"
	 viewBox="0 0 25.6 19.2" style="enable-background:new 0 0 25.6 19.2;" xml:space="preserve">
<style type="text/css">
	.st0{fill:#74B9FF;}
	.st1{fill:#F1C40F;}
</style>
<title>013-sunny</title>
<path class="st0" d="M23.9,9.9l-0.5-0.5l-1.9,1.7l0.6,0.6c1.1,1.1,1.2,2.8,0.2,4c-0.6,0.6-1.3,1-2.2,1c0,0,0,0,0,0l-14.6,0
	c-0.8,0-1.5-0.4-2-1c-0.5-0.6-0.8-1.3-0.7-2.1c0.1-1.5,1.3-2.7,2.7-2.8h0.1c0,0,0,0,0,0c0.2,0,0.4,0,0.6,0.1l0.1,0
	c0.7,0.2,1.3,0.7,1.7,1.3c0.2,0.3,0.4,0.5,0.8,0.6c0.3,0.1,0.7,0.1,1-0.1c0.3-0.2,0.5-0.4,0.6-0.8c0.1-0.3,0.1-0.7-0.1-1
	c-0.7-1.2-1.8-2-3.1-2.4c0.9-2.4,3.1-4,5.7-4c0,0,0,0,0,0c0.2,0,0.4,0,0.7,0.1L14,4.7l1.5-2.3l-1.1-0.2C13.8,2.1,13.2,2,12.8,2
	C8.9,2,5.5,4.7,4.5,8.4C1.8,8.8-0.2,11.3,0,14.1c0.2,2.9,2.6,5.1,5.4,5.1c0,0,0,0,0.1,0h14.6c0,0,0,0,0,0c3,0,5.4-2.4,5.4-5.4
	C25.6,12.3,25,10.9,23.9,9.9z"/>
<path class="st1" d="M23.3,1.6c-2.7-2.4-6.8-2.2-9.2,0.5c-0.1,0.1-0.2,0.2-0.3,0.4c-0.2,0.2-0.5,0.8-0.6,1c-0.5,0.8-0.7,1.8-0.7,2.9
	c0,2.5,1.5,4.8,3.7,5.9c0.9,0.4,1.8,0.6,2.8,0.6c1.4,0,2.8-0.5,4-1.4l0.8-0.8C26.2,8.1,26,4,23.3,1.6z M21.6,9.4
	c-0.7,0.6-1.6,1-2.6,1c0,0,0,0,0,0c-0.6,0-1.2-0.1-1.7-0.4c-1.4-0.6-2.3-2-2.3-3.6c0-0.8,0.2-1.5,0.7-2.2l0,0c0.8-1.2,2-1.8,3.3-1.8
	c0.7,0,1.5,0.2,2.1,0.6c1.8,1.2,2.3,3.6,1.2,5.4C22.2,8.8,21.9,9.1,21.6,9.4z"/>
</svg>
