<svg xmlns="http://www.w3.org/2000/svg" viewBox="0 0 24 19.83">
  <title>001-wind</title>
  <g>
    <path d="M19.3,1a4.7,4.7,0,0,0-4.69,4.7.52.52,0,0,0,1,0A3.66,3.66,0,1,1,19.3,9.39H.52A.52.52,0,0,0,0,9.91a.52.52,0,0,0,.52.52H19.3A4.7,4.7,0,1,0,19.3,1Z" fill="#aaa"/>
    <path d="M9.39,0A3.66,3.66,0,0,0,5.74,3.65a.52.52,0,1,0,1,0A2.61,2.61,0,1,1,9.39,6.26H.52a.52.52,0,0,0,0,1H9.39a3.65,3.65,0,0,0,0-7.3Z" fill="#aaa"/>
    <path d="M18.26,12.52H.52a.53.53,0,0,0,0,1.05H18.26a2.61,2.61,0,1,1-2.61,2.6.52.52,0,1,0-1,0,3.65,3.65,0,1,0,3.65-3.65Z" fill="#aaa"/>
  </g>
</svg>
