<svg xmlns="http://www.w3.org/2000/svg" viewBox="0 0 24 22">
  <title>007-sunset</title>
  <g>
    <path d="M23.5,15a23.07,23.07,0,0,0-3.08.16A9,9,0,0,0,21,12.5H23.5a.5.5,0,0,0,0-1H21A8.93,8.93,0,0,0,18.7,6l1.79-1.79a.5.5,0,0,0,0-.7.5.5,0,0,0-.71,0L18,5.3A8.93,8.93,0,0,0,12.5,3V.5a.5.5,0,0,0-1,0V3A8.93,8.93,0,0,0,6,5.3L4.22,3.52a.5.5,0,0,0-.71,0,.5.5,0,0,0,0,.7L5.3,6A8.93,8.93,0,0,0,3,11.5H.5a.5.5,0,0,0,0,1H3a9,9,0,0,0,.55,2.66A23.07,23.07,0,0,0,.5,15a.5.5,0,0,0,0,1,16.33,16.33,0,0,1,4.63.48A16.72,16.72,0,0,0,10,17a.5.5,0,0,0,0-1,16.33,16.33,0,0,1-4.63-.48l-.62-.15A7.9,7.9,0,0,1,4,12a8,8,0,0,1,16,0,7.9,7.9,0,0,1-.76,3.37l-.62.15A16.33,16.33,0,0,1,14,16a.5.5,0,0,0,0,1,16.59,16.59,0,0,0,4.87-.52A16.48,16.48,0,0,1,23.5,16a.5.5,0,0,0,0-1Z" fill="#aaa"/>
    <path d="M13.65,19.15,12.5,20.29V14.5a.5.5,0,0,0-1,0v5.79l-1.15-1.14a.49.49,0,0,0-.7.7l2,2a.36.36,0,0,0,.16.11.47.47,0,0,0,.38,0,.36.36,0,0,0,.16-.11l2-2a.49.49,0,0,0-.7-.7Z" fill="#aaa"/>
  </g>
</svg>
