<svg xmlns="http://www.w3.org/2000/svg" viewBox="0 0 24 24">
  <title>007-sunny</title>
  <g>
    <path d="M12,0a.52.52,0,0,0-.52.52V3.65a.52.52,0,1,0,1,0V.52A.52.52,0,0,0,12,0Z" fill="#aaa"/>
    <path d="M12,19.83a.52.52,0,0,0-.52.52v3.13a.52.52,0,1,0,1,0V20.35A.52.52,0,0,0,12,19.83Z" fill="#aaa"/>
    <path d="M20.35,11.48h3.13a.52.52,0,1,1,0,1H20.35a.52.52,0,1,1,0-1Z" fill="#aaa"/>
    <path d="M3.65,11.48H.52a.52.52,0,1,0,0,1H3.65a.52.52,0,0,0,0-1Z" fill="#aaa"/>
    <path d="M18.11,17.37,20.72,20a.53.53,0,0,1,0,.74.55.55,0,0,1-.37.15.51.51,0,0,1-.37-.15l-2.61-2.61a.52.52,0,0,1,.74-.74Z" fill="#aaa"/>
    <path d="M6.63,5.89,4,3.28A.52.52,0,1,0,3.28,4L5.89,6.63a.52.52,0,0,0,.74-.74Z" fill="#aaa"/>
    <path d="M5.89,17.37a.52.52,0,0,1,.74.74L4,20.72a.51.51,0,0,1-.37.15A.52.52,0,0,1,3.28,20Z" fill="#aaa"/>
    <path d="M20.72,3.28a.53.53,0,0,0-.74,0L17.37,5.89a.52.52,0,0,0,.74.74L20.72,4A.53.53,0,0,0,20.72,3.28Z" fill="#aaa"/>
    <path d="M6.26,12A5.74,5.74,0,1,1,12,17.74,5.75,5.75,0,0,1,6.26,12Zm1,0A4.7,4.7,0,1,0,12,7.3,4.71,4.71,0,0,0,7.3,12Z" fill="#aaa"/>
  </g>
</svg>
