<svg xmlns="http://www.w3.org/2000/svg" viewBox="0 0 24 17.74">
  <title>013-sunny</title>
  <path d="M22.5,9.61a5.73,5.73,0,1,0-8.8-7.33A7.51,7.51,0,0,0,12,2.09,7.85,7.85,0,0,0,4.34,8.37a4.69,4.69,0,0,0,.36,9.37H19.3a4.69,4.69,0,0,0,3.2-8.13ZM14.35,3.15a4.69,4.69,0,1,1,7,6.1,4.63,4.63,0,0,1-3.11,1.19,4.68,4.68,0,0,1-2-.45h0a4.69,4.69,0,0,1-2.69-4.24A4.58,4.58,0,0,1,14.35,3.15Zm5,13.55H4.7a3.66,3.66,0,0,1,0-7.31h.1a3.42,3.42,0,0,1,.83.1l.06,0a3.68,3.68,0,0,1,2.2,1.7.52.52,0,1,0,.9-.52A4.71,4.71,0,0,0,6,8.54l-.07,0a5.35,5.35,0,0,0-.55-.11A6.82,6.82,0,0,1,12,3.13a6,6,0,0,1,1.11.1,5.55,5.55,0,0,0-.59,2.51,5.77,5.77,0,0,0,3.29,5.19,5.71,5.71,0,0,0,5.91-.62A3.65,3.65,0,0,1,19.3,16.7Z" fill="#aaa"/>
</svg>
