<svg xmlns="http://www.w3.org/2000/svg" viewBox="0 0 24 17.74">
  <title>014-cloudy</title>
  <path d="M22.5,9.61a5.73,5.73,0,1,0-8.8-7.33A7.51,7.51,0,0,0,12,2.09,7.85,7.85,0,0,0,4.34,8.37a4.69,4.69,0,0,0,.36,9.37H19.3a4.69,4.69,0,0,0,3.2-8.13ZM18.26,1A4.7,4.7,0,0,1,21.66,9l-.17-.09-.17-.08a4,4,0,0,0-.53-.22l-.07,0a4.8,4.8,0,0,0-.63-.15l-.17,0-.25,0a7.79,7.79,0,0,0-4.9-5.76A4.68,4.68,0,0,1,18.26,1Zm1,15.66H4.7a3.66,3.66,0,0,1,0-7.31h.1a3.42,3.42,0,0,1,.83.1l.06,0a3.71,3.71,0,0,1,2.2,1.7.52.52,0,0,0,.71.19.51.51,0,0,0,.19-.71A4.71,4.71,0,0,0,6,8.54l-.07,0a5.35,5.35,0,0,0-.55-.11A6.82,6.82,0,0,1,12,3.13a6.57,6.57,0,0,1,1.77.24h0a6.76,6.76,0,0,1,4.84,5c-.18,0-.36.06-.55.11l-.07,0a4.66,4.66,0,0,0-2.35,1.58h0a5.12,5.12,0,0,0-.39.56.52.52,0,0,0,.2.71.48.48,0,0,0,.26.07.51.51,0,0,0,.45-.27,3.13,3.13,0,0,1,.29-.42h0a3.7,3.7,0,0,1,1.9-1.26l.06,0a3.42,3.42,0,0,1,.83-.1h.07a3.66,3.66,0,1,1,0,7.31Z" fill="#aaa"/>
</svg>
