<svg xmlns="http://www.w3.org/2000/svg" viewBox="0 0 24 15.65">
  <title>016-hazy</title>
  <g>
    <path d="M19.9,1.11a6.51,6.51,0,0,0,3.58,1,.52.52,0,0,1,0,1A7.37,7.37,0,0,1,19.4,2h0a6.46,6.46,0,0,0-3.58-1,6.45,6.45,0,0,0-3.57,1h0A7.31,7.31,0,0,1,8.17,3.13,7.34,7.34,0,0,1,4.1,2,6.51,6.51,0,0,0,.52,1,.52.52,0,0,1,0,.52.52.52,0,0,1,.52,0,7.37,7.37,0,0,1,4.6,1.11a6.45,6.45,0,0,0,3.57,1,6.51,6.51,0,0,0,3.58-1h0A7.36,7.36,0,0,1,15.82,0,7.37,7.37,0,0,1,19.9,1.11Z" fill="#aaa"/>
    <path d="M19.9,5.28a6.51,6.51,0,0,0,3.58,1,.52.52,0,0,1,0,1A7.47,7.47,0,0,1,19.4,6.2h0a6.38,6.38,0,0,0-3.58-1,6.36,6.36,0,0,0-3.57,1h0A7.4,7.4,0,0,1,8.17,7.3,7.43,7.43,0,0,1,4.1,6.2a6.43,6.43,0,0,0-3.58-1,.53.53,0,0,1,0-1A7.46,7.46,0,0,1,4.6,5.28a6.45,6.45,0,0,0,3.57,1,6.51,6.51,0,0,0,3.58-1h0a7.45,7.45,0,0,1,4.07-1.11A7.46,7.46,0,0,1,19.9,5.28Z" fill="#aaa"/>
    <path d="M23.48,14.61a6.51,6.51,0,0,1-3.58-1h0a7.37,7.37,0,0,0-4.08-1.11,7.36,7.36,0,0,0-4.07,1.11h0a6.51,6.51,0,0,1-3.58,1,6.45,6.45,0,0,1-3.57-1A7.37,7.37,0,0,0,.52,12.52a.53.53,0,0,0,0,1.05,6.52,6.52,0,0,1,3.58,1,7.34,7.34,0,0,0,4.07,1.11,7.4,7.4,0,0,0,4.07-1.1h0a6.45,6.45,0,0,1,3.57-1,6.46,6.46,0,0,1,3.58,1h0a7.47,7.47,0,0,0,4.08,1.1.52.52,0,0,0,0-1Z" fill="#aaa"/>
    <path d="M19.9,9.46a6.52,6.52,0,0,0,3.58,1,.53.53,0,0,1,0,1.05,7.37,7.37,0,0,1-4.08-1.11h0a6.46,6.46,0,0,0-3.58-1,6.45,6.45,0,0,0-3.57,1h0a7.31,7.31,0,0,1-4.07,1.11A7.42,7.42,0,0,1,4.1,10.37a6.51,6.51,0,0,0-3.58-1,.52.52,0,1,1,0-1A7.47,7.47,0,0,1,4.6,9.45a6.36,6.36,0,0,0,3.57,1,6.52,6.52,0,0,0,3.58-1h0a7.45,7.45,0,0,1,4.07-1.1,7.47,7.47,0,0,1,4.08,1.1Z" fill="#aaa"/>
  </g>
</svg>
