<svg xmlns="http://www.w3.org/2000/svg" viewBox="0 0 24 24">
  <title>027-humidity</title>
  <g>
    <path d="M15.34.13a.52.52,0,0,0-.68,0c-.21.2-5.19,4.75-7.51,10a2.81,2.81,0,0,0-.9-.15,2.74,2.74,0,0,0-1.73.59A1.73,1.73,0,0,1,3.37,11a1.73,1.73,0,0,1-1.15-.41A2.73,2.73,0,0,0,.5,10a.5.5,0,0,0,0,1,1.73,1.73,0,0,1,1.15.41A2.73,2.73,0,0,0,3.37,12a2.74,2.74,0,0,0,1.73-.59A1.71,1.71,0,0,1,6.25,11a1.73,1.73,0,0,1,1.15.41,2.82,2.82,0,0,0,3.45,0A1.73,1.73,0,0,1,12,11a.5.5,0,0,0,0-1,2.69,2.69,0,0,0-1.72.59A1.74,1.74,0,0,1,9.12,11,1.68,1.68,0,0,1,8,10.63c1.88-4.34,5.8-8.32,7-9.44,1.56,1.5,8,8.05,8,13.81A8,8,0,0,1,9.67,21a2.88,2.88,0,0,0,1.18-.54A1.73,1.73,0,0,1,12,20a.5.5,0,0,0,0-1,2.69,2.69,0,0,0-1.72.59,1.83,1.83,0,0,1-2.31,0,2.82,2.82,0,0,0-3.45,0A1.73,1.73,0,0,1,3.37,20a1.73,1.73,0,0,1-1.15-.41A2.71,2.71,0,0,0,.5,19a.5.5,0,0,0,0,1,1.73,1.73,0,0,1,1.15.41A2.73,2.73,0,0,0,3.37,21a2.74,2.74,0,0,0,1.73-.59A1.71,1.71,0,0,1,6.25,20a1.73,1.73,0,0,1,1.15.41,3.45,3.45,0,0,0,.75.42A9,9,0,0,0,24,15C24,8.05,15.69.45,15.34.13Z" fill="#aaa"/>
    <path d="M.5,17a1.73,1.73,0,0,1,1.15.41A2.73,2.73,0,0,0,3.37,18a.5.5,0,1,0,0-1,1.73,1.73,0,0,1-1.15-.41A2.73,2.73,0,0,0,.5,16a.5.5,0,0,0,0,1Z" fill="#aaa"/>
    <path d="M6.25,16a.5.5,0,0,0,0,1,1.73,1.73,0,0,1,1.15.41,2.82,2.82,0,0,0,3.45,0A1.73,1.73,0,0,1,12,17a2,2,0,0,1,1.23.42A3,3,0,0,0,15,18a.5.5,0,0,0,0-1,2,2,0,0,1-1.23-.42A3,3,0,0,0,12,16a2.69,2.69,0,0,0-1.72.59,1.83,1.83,0,0,1-2.31,0A2.73,2.73,0,0,0,6.25,16Z" fill="#aaa"/>
    <path d="M6.25,13a2.74,2.74,0,0,0-1.73.59A1.73,1.73,0,0,1,3.37,14a1.73,1.73,0,0,1-1.15-.41A2.73,2.73,0,0,0,.5,13a.5.5,0,0,0,0,1,1.73,1.73,0,0,1,1.15.41A2.73,2.73,0,0,0,3.37,15a2.74,2.74,0,0,0,1.73-.59A1.71,1.71,0,0,1,6.25,14a.5.5,0,0,0,0-1Z" fill="#aaa"/>
    <path d="M10.85,14.41a1.82,1.82,0,0,1,2.3,0,2.82,2.82,0,0,0,3.45,0A1.69,1.69,0,0,1,17.75,14a.5.5,0,0,0,0-1,2.74,2.74,0,0,0-1.73.59,1.82,1.82,0,0,1-2.3,0A2.73,2.73,0,0,0,12,13a2.69,2.69,0,0,0-1.72.59A1.74,1.74,0,0,1,9.12,14a.5.5,0,1,0,0,1A2.74,2.74,0,0,0,10.85,14.41Z" fill="#aaa"/>
  </g>
</svg>
