<svg xmlns="http://www.w3.org/2000/svg" viewBox="0 0 24 20">
  <title>050-barometer</title>
  <g>
    <path d="M12,4a.5.5,0,0,0,.5-.5v-1a.5.5,0,0,0-1,0v1A.5.5,0,0,0,12,4Z" fill="#aaa"/>
    <path d="M7.68,3.52a.5.5,0,0,0-.86.5l.5.87a.5.5,0,0,0,.43.25A.45.45,0,0,0,8,5.07a.49.49,0,0,0,.18-.68Z" fill="#aaa"/>
    <path d="M4.89,7.32,4,6.82a.5.5,0,0,0-.5.86l.87.5a.45.45,0,0,0,.25.07.5.5,0,0,0,.25-.93Z" fill="#aaa"/>
    <path d="M20.48,16.32l-.87-.5a.5.5,0,1,0-.5.86l.87.5a.45.45,0,0,0,.25.07.5.5,0,0,0,.25-.93Z" fill="#aaa"/>
    <path d="M4,12a.5.5,0,0,0-.5-.5h-1a.5.5,0,0,0,0,1h1A.5.5,0,0,0,4,12Z" fill="#aaa"/>
    <path d="M22,12a.5.5,0,0,0-.5-.5h-1a.5.5,0,0,0,0,1h1A.5.5,0,0,0,22,12Z" fill="#aaa"/>
    <path d="M4.39,15.82l-.87.5a.5.5,0,0,0,.25.93A.45.45,0,0,0,4,17.18l.87-.5a.5.5,0,1,0-.5-.86Z" fill="#aaa"/>
    <path d="M19.36,8.25a.45.45,0,0,0,.25-.07l.87-.5a.5.5,0,0,0-.5-.86l-.87.5a.5.5,0,0,0,.25.93Z" fill="#aaa"/>
    <path d="M17,3.34a.49.49,0,0,0-.68.18l-.5.87a.49.49,0,0,0,.18.68.45.45,0,0,0,.25.07.5.5,0,0,0,.43-.25l.5-.87A.49.49,0,0,0,17,3.34Z" fill="#aaa"/>
    <path d="M12,0A12,12,0,0,0,1.46,17.74a.5.5,0,1,0,.88-.48A11,11,0,1,1,23,12a10.94,10.94,0,0,1-1.34,5.26.51.51,0,0,0,.2.68.53.53,0,0,0,.24.06.49.49,0,0,0,.44-.26A12,12,0,0,0,12,0Z" fill="#aaa"/>
    <path d="M12.5,6.46a.5.5,0,0,0-1,0l-.88,10.1A2,2,0,0,0,10,18a2,2,0,0,0,4,0,2,2,0,0,0-.62-1.44ZM12,19a1,1,0,0,1-.6-1.79.52.52,0,0,0,.19-.36L12,12.22l.41,4.63a.52.52,0,0,0,.19.36A1,1,0,0,1,12,19Z" fill="#aaa"/>
  </g>
</svg>
