<svg xmlns="http://www.w3.org/2000/svg" viewBox="0 0 16.53 24">
  <title>location</title>
  <path d="M16.14,6a6.66,6.66,0,0,0-.39-1,8.06,8.06,0,0,0-7.6-5A8.08,8.08,0,0,0,0,7.45v1s0,.43,0,.62c.3,2.39,2.19,4.93,3.6,7.32C5.14,19,6.71,21.48,8.27,24c1-1.64,1.92-3.31,2.86-4.91.25-.47.55-.94.8-1.38s.5-.6.65-.88c1.51-2.77,4-5.57,4-8.32V7.38A8.76,8.76,0,0,0,16.14,6ZM8.22,11.11a2.93,2.93,0,0,1-2.81-2,3,3,0,0,1-.08-.75V7.7A2.78,2.78,0,0,1,8.31,5a3,3,0,0,1,3,3.07A3.09,3.09,0,0,1,8.22,11.11Z" fill="#0d9fea"/>
</svg>
