<svg xmlns="http://www.w3.org/2000/svg" viewBox="0 0 16.1 22.5">
  <title>sand-clock</title>
  <path d="M14.29,3.76V1.13h1.25A.57.57,0,0,0,16.1.56.56.56,0,0,0,15.54,0H.56A.56.56,0,0,0,0,.56a.57.57,0,0,0,.56.57H1.81V3.76A6,6,0,0,0,3.63,8l3.6,3.47L3.79,14.75a6,6,0,0,0-1.87,4.34v2.29H.56a.56.56,0,1,0,0,1.12h15a.56.56,0,1,0,0-1.12H14.35V19.14a6,6,0,0,0-1.94-4.4L8.87,11.51,12.47,8A6,6,0,0,0,14.29,3.76ZM13.23,19.14v2.24H3V19.09a4.85,4.85,0,0,1,1.52-3.52l3.5-3.28,3.59,3.28A4.89,4.89,0,0,1,13.23,19.14Zm-5.18-8.4L4.41,7.23A4.88,4.88,0,0,1,2.93,3.76V1.13H13.17V3.76a4.88,4.88,0,0,1-1.48,3.47Z" fill="#aaa"/>
</svg>
